<svg width="477" height="477" viewBox="0 0 477 477" fill="none" xmlns="http://www.w3.org/2000/svg">
<path d="M0 50C0 22.3858 22.3858 0 50 0H427C454.614 0 477 22.3858 477 50V427C477 454.614 454.614 477 427 477H50C22.3858 477 0 454.614 0 427V50Z" fill="black"/>
<path d="M168.541 263.432C161.581 263.384 154.786 262.177 148.157 259.81C141.529 257.395 135.563 253.489 130.26 248.091C124.957 242.646 120.743 235.425 117.618 226.429C114.493 217.385 112.954 206.188 113.001 192.835C113.001 180.383 114.327 169.279 116.978 159.526C119.63 149.772 123.441 141.533 128.413 134.81C133.385 128.039 139.374 122.878 146.382 119.327C153.437 115.776 161.32 114 170.032 114C179.171 114 187.267 115.799 194.322 119.398C201.424 122.996 207.154 127.92 211.51 134.17C215.866 140.373 218.565 147.381 219.606 155.193H193.683C192.357 149.606 189.635 145.155 185.515 141.841C181.443 138.479 176.282 136.798 170.032 136.798C159.947 136.798 152.182 141.178 146.737 149.938C141.339 158.697 138.617 170.723 138.569 186.017H139.564C141.884 181.85 144.89 178.276 148.583 175.293C152.277 172.31 156.443 170.013 161.083 168.403C165.771 166.746 170.719 165.918 175.927 165.918C184.45 165.918 192.097 167.954 198.868 172.026C205.686 176.098 211.083 181.708 215.061 188.858C219.038 195.96 221.003 204.104 220.956 213.29C221.003 222.854 218.825 231.448 214.422 239.071C210.018 246.647 203.886 252.613 196.027 256.969C188.167 261.325 179.005 263.479 168.541 263.432ZM168.399 242.125C173.56 242.125 178.176 240.87 182.248 238.361C186.32 235.851 189.54 232.466 191.907 228.205C194.275 223.943 195.435 219.161 195.387 213.858C195.435 208.65 194.298 203.938 191.978 199.724C189.706 195.51 186.557 192.172 182.532 189.71C178.508 187.248 173.915 186.017 168.754 186.017C164.919 186.017 161.344 186.751 158.029 188.219C154.715 189.687 151.827 191.723 149.365 194.327C146.903 196.884 144.961 199.866 143.541 203.276C142.168 206.637 141.458 210.236 141.41 214.071C141.458 219.137 142.641 223.801 144.961 228.062C147.281 232.324 150.477 235.733 154.549 238.29C158.621 240.847 163.238 242.125 168.399 242.125Z" fill="white"/>
<path d="M246.382 261.443V115.989H272.731V182.821H274.507L331.254 115.989H363.427L307.177 181.259L363.924 261.443H332.248L288.853 199.085L272.731 218.119V261.443H246.382Z" fill="white"/>
<path d="M156.779 363.898C153.658 363.898 150.939 363.117 148.62 361.557C146.317 359.996 144.529 357.86 143.257 355.148C141.984 352.436 141.348 349.345 141.348 345.875C141.348 342.375 141.992 339.261 143.279 336.534C144.583 333.807 146.386 331.671 148.689 330.125C150.992 328.564 153.666 327.784 156.711 327.784C159.045 327.784 161.158 328.239 163.052 329.148C164.946 330.042 166.507 331.307 167.734 332.943C168.976 334.564 169.757 336.458 170.075 338.625H165.984C165.56 336.655 164.537 334.974 162.916 333.58C161.31 332.17 159.264 331.466 156.779 331.466C154.552 331.466 152.582 332.072 150.87 333.284C149.158 334.481 147.817 336.155 146.848 338.307C145.893 340.443 145.416 342.921 145.416 345.739C145.416 348.572 145.886 351.08 146.825 353.261C147.764 355.428 149.083 357.125 150.779 358.352C152.492 359.58 154.492 360.193 156.779 360.193C158.325 360.193 159.734 359.905 161.007 359.33C162.295 358.739 163.37 357.905 164.234 356.83C165.113 355.754 165.704 354.474 166.007 352.989H170.098C169.795 355.095 169.045 356.974 167.848 358.625C166.666 360.261 165.128 361.549 163.234 362.489C161.355 363.428 159.204 363.898 156.779 363.898Z" fill="white" fill-opacity="0.5"/>
<path d="M182.814 316.625V363.171H178.768V316.625H182.814Z" fill="white" fill-opacity="0.5"/>
<path d="M193.564 363.171V328.261H197.632V363.171H193.564ZM195.632 322.261C194.798 322.261 194.086 321.981 193.495 321.421C192.904 320.845 192.609 320.155 192.609 319.352C192.609 318.549 192.904 317.867 193.495 317.307C194.086 316.731 194.798 316.443 195.632 316.443C196.465 316.443 197.177 316.731 197.768 317.307C198.359 317.867 198.654 318.549 198.654 319.352C198.654 320.155 198.359 320.845 197.768 321.421C197.177 321.981 196.465 322.261 195.632 322.261Z" fill="white" fill-opacity="0.5"/>
<path d="M222.444 363.898C219.187 363.898 216.368 363.14 213.99 361.625C211.611 360.095 209.77 357.981 208.467 355.284C207.179 352.572 206.535 349.451 206.535 345.921C206.535 342.405 207.179 339.284 208.467 336.557C209.77 333.814 211.565 331.671 213.853 330.125C216.156 328.564 218.815 327.784 221.831 327.784C223.725 327.784 225.55 328.133 227.308 328.83C229.065 329.511 230.641 330.564 232.035 331.989C233.444 333.398 234.558 335.178 235.376 337.33C236.194 339.466 236.603 341.996 236.603 344.921V346.921H209.331V343.352H232.467C232.467 341.11 232.012 339.095 231.103 337.307C230.209 335.504 228.959 334.08 227.353 333.034C225.762 331.989 223.922 331.466 221.831 331.466C219.618 331.466 217.672 332.057 215.99 333.239C214.308 334.421 212.99 335.981 212.035 337.921C211.096 339.86 210.618 341.981 210.603 344.284V346.421C210.603 349.193 211.081 351.617 212.035 353.693C213.005 355.754 214.376 357.352 216.149 358.489C217.922 359.625 220.02 360.193 222.444 360.193C224.096 360.193 225.543 359.936 226.785 359.421C228.043 358.905 229.096 358.216 229.944 357.352C230.808 356.474 231.459 355.511 231.899 354.466L235.74 355.716C235.209 357.186 234.338 358.542 233.126 359.784C231.929 361.027 230.429 362.027 228.626 362.784C226.838 363.527 224.778 363.898 222.444 363.898Z" fill="white" fill-opacity="0.5"/>
<path d="M249.564 341.352V363.171H245.518V328.261H249.45V333.739H249.814C250.632 331.951 251.904 330.519 253.632 329.443C255.374 328.352 257.526 327.807 260.086 327.807C262.435 327.807 264.495 328.299 266.268 329.284C268.056 330.254 269.442 331.686 270.427 333.58C271.427 335.474 271.927 337.799 271.927 340.557V363.171H267.882V340.807C267.882 337.943 267.079 335.678 265.473 334.011C263.882 332.345 261.745 331.511 259.064 331.511C257.23 331.511 255.601 331.905 254.177 332.693C252.753 333.481 251.624 334.617 250.791 336.102C249.973 337.572 249.564 339.322 249.564 341.352Z" fill="white" fill-opacity="0.5"/>
<path d="M296.331 328.261V331.784H279.672V328.261H296.331ZM284.876 319.898H288.944V354.057C288.944 355.511 289.194 356.655 289.694 357.489C290.194 358.307 290.846 358.89 291.649 359.239C292.452 359.572 293.308 359.739 294.217 359.739C294.747 359.739 295.202 359.708 295.581 359.648C295.959 359.572 296.293 359.496 296.581 359.421L297.444 363.08C297.05 363.231 296.565 363.367 295.99 363.489C295.414 363.625 294.702 363.693 293.853 363.693C292.368 363.693 290.937 363.367 289.558 362.716C288.194 362.064 287.073 361.095 286.194 359.807C285.315 358.519 284.876 356.921 284.876 355.011V319.898Z" fill="white" fill-opacity="0.5"/>
<path d="M328.348 335.921L324.643 336.966C324.279 335.921 323.764 334.974 323.098 334.125C322.431 333.277 321.56 332.602 320.484 332.102C319.423 331.602 318.105 331.352 316.529 331.352C314.166 331.352 312.226 331.913 310.711 333.034C309.196 334.155 308.439 335.602 308.439 337.375C308.439 338.875 308.954 340.095 309.984 341.034C311.029 341.958 312.636 342.693 314.802 343.239L320.075 344.534C322.999 345.246 325.189 346.375 326.643 347.921C328.113 349.466 328.848 351.405 328.848 353.739C328.848 355.708 328.302 357.458 327.211 358.989C326.12 360.519 324.598 361.724 322.643 362.602C320.704 363.466 318.454 363.898 315.893 363.898C312.484 363.898 309.673 363.133 307.461 361.602C305.249 360.057 303.833 357.83 303.211 354.921L307.098 353.966C307.598 356.042 308.575 357.61 310.029 358.671C311.499 359.731 313.431 360.261 315.825 360.261C318.507 360.261 320.651 359.663 322.257 358.466C323.863 357.254 324.666 355.739 324.666 353.921C324.666 352.511 324.196 351.33 323.257 350.375C322.317 349.405 320.893 348.693 318.984 348.239L313.279 346.875C310.249 346.148 308.007 344.996 306.552 343.421C305.098 341.845 304.37 339.89 304.37 337.557C304.37 335.633 304.893 333.943 305.939 332.489C306.984 331.019 308.423 329.867 310.257 329.034C312.09 328.201 314.181 327.784 316.529 327.784C319.726 327.784 322.279 328.511 324.189 329.966C326.113 331.405 327.499 333.39 328.348 335.921Z" fill="white" fill-opacity="0.5"/>
</svg>
