<svg width="791" height="221" viewBox="0 0 791 221" fill="none" xmlns="http://www.w3.org/2000/svg">
<path d="M21.3543 191.855C35.1042 173.089 56.9755 162 80.2399 162H159.11C162.386 162 164.273 165.722 162.337 168.364L145.646 191.145C131.896 209.911 110.025 221 86.7601 221H7.88955C4.61391 221 2.72695 217.278 4.66294 214.636L21.3543 191.855Z" fill="black"/>
<path d="M80.3543 29.855C94.1042 11.0887 115.975 0 139.24 0H218.11C221.386 0 223.273 3.72181 221.337 6.36411L204.646 29.145C190.896 47.9113 169.025 59 145.76 59H66.8895C63.6139 59 61.7269 55.2782 63.6629 52.6359L80.3543 29.855Z" fill="black"/>
<path d="M200.031 193.176C216.497 179.305 226 158.874 226 137.345V37.5996C226 34.1983 222.024 32.349 219.423 34.5403L192.969 56.8244C176.503 70.6948 167 91.1262 167 112.655V212.4C167 215.802 170.976 217.651 173.577 215.46L200.031 193.176Z" fill="black"/>
<path d="M33.0308 164.176C49.4966 150.305 59 129.874 59 108.345V8.59958C59 5.19827 55.0243 3.34902 52.423 5.54034L25.9692 27.8244C9.50344 41.6948 0 62.1262 0 83.6554V183.4C0 186.802 3.97568 188.651 6.57703 186.46L33.0308 164.176Z" fill="black"/>
<path d="M276.091 149V55.9091H295.773V132.773H335.682V149H276.091Z" fill="black"/>
<path d="M368.261 150.318C363.807 150.318 359.837 149.545 356.352 148C352.867 146.424 350.11 144.106 348.08 141.045C346.08 137.955 345.08 134.106 345.08 129.5C345.08 125.621 345.792 122.364 347.216 119.727C348.64 117.091 350.58 114.97 353.034 113.364C355.489 111.758 358.277 110.545 361.398 109.727C364.549 108.909 367.852 108.333 371.307 108C375.367 107.576 378.64 107.182 381.125 106.818C383.61 106.424 385.413 105.848 386.534 105.091C387.655 104.333 388.216 103.212 388.216 101.727V101.455C388.216 98.5758 387.307 96.3485 385.489 94.7727C383.701 93.197 381.155 92.4091 377.852 92.4091C374.367 92.4091 371.595 93.1818 369.534 94.7273C367.473 96.2424 366.11 98.1515 365.443 100.455L347.534 99C348.443 94.7576 350.231 91.0909 352.898 88C355.564 84.8788 359.004 82.4848 363.216 80.8182C367.458 79.1212 372.367 78.2727 377.943 78.2727C381.822 78.2727 385.534 78.7273 389.08 79.6364C392.655 80.5455 395.822 81.9545 398.58 83.8636C401.367 85.7727 403.564 88.2273 405.17 91.2273C406.777 94.197 407.58 97.7576 407.58 101.909V149H389.216V139.318H388.67C387.549 141.5 386.049 143.424 384.17 145.091C382.292 146.727 380.034 148.015 377.398 148.955C374.761 149.864 371.716 150.318 368.261 150.318ZM373.807 136.955C376.655 136.955 379.17 136.394 381.352 135.273C383.534 134.121 385.246 132.576 386.489 130.636C387.731 128.697 388.352 126.5 388.352 124.045V116.636C387.746 117.03 386.913 117.394 385.852 117.727C384.822 118.03 383.655 118.318 382.352 118.591C381.049 118.833 379.746 119.061 378.443 119.273C377.14 119.455 375.958 119.621 374.898 119.773C372.625 120.106 370.64 120.636 368.943 121.364C367.246 122.091 365.928 123.076 364.989 124.318C364.049 125.53 363.58 127.045 363.58 128.864C363.58 131.5 364.534 133.515 366.443 134.909C368.383 136.273 370.837 136.955 373.807 136.955Z" fill="black"/>
<path d="M441.966 108.636V149H422.602V79.1818H441.057V91.5H441.875C443.42 87.4394 446.011 84.2273 449.648 81.8636C453.284 79.4697 457.693 78.2727 462.875 78.2727C467.723 78.2727 471.951 79.3333 475.557 81.4545C479.163 83.5758 481.966 86.6061 483.966 90.5455C485.966 94.4545 486.966 99.1212 486.966 104.545V149H467.602V108C467.633 103.727 466.542 100.394 464.33 98C462.117 95.5758 459.072 94.3636 455.193 94.3636C452.587 94.3636 450.284 94.9242 448.284 96.0455C446.314 97.1667 444.769 98.803 443.648 100.955C442.557 103.076 441.996 105.636 441.966 108.636Z" fill="black"/>
<path d="M527.955 150.136C522.651 150.136 517.849 148.773 513.545 146.045C509.273 143.288 505.879 139.242 503.364 133.909C500.879 128.545 499.636 121.97 499.636 114.182C499.636 106.182 500.924 99.5303 503.5 94.2273C506.076 88.8939 509.5 84.9091 513.773 82.2727C518.076 79.6061 522.788 78.2727 527.909 78.2727C531.818 78.2727 535.076 78.9394 537.682 80.2727C540.318 81.5758 542.439 83.2121 544.045 85.1818C545.682 87.1212 546.924 89.0303 547.773 90.9091H548.364V55.9091H567.682V149H548.591V137.818H547.773C546.864 139.758 545.576 141.682 543.909 143.591C542.273 145.47 540.136 147.03 537.5 148.273C534.894 149.515 531.712 150.136 527.955 150.136ZM534.091 134.727C537.212 134.727 539.848 133.879 542 132.182C544.182 130.455 545.848 128.045 547 124.955C548.182 121.864 548.773 118.242 548.773 114.091C548.773 109.939 548.197 106.333 547.045 103.273C545.894 100.212 544.227 97.8485 542.045 96.1818C539.864 94.5151 537.212 93.6818 534.091 93.6818C530.909 93.6818 528.227 94.5454 526.045 96.2727C523.864 98 522.212 100.394 521.091 103.455C519.97 106.515 519.409 110.061 519.409 114.091C519.409 118.152 519.97 121.742 521.091 124.864C522.242 127.955 523.894 130.379 526.045 132.136C528.227 133.864 530.909 134.727 534.091 134.727Z" fill="black"/>
<path d="M583.602 149V79.1818H602.966V149H583.602ZM593.33 70.1818C590.451 70.1818 587.981 69.2273 585.92 67.3182C583.89 65.3788 582.875 63.0606 582.875 60.3636C582.875 57.697 583.89 55.4091 585.92 53.5C587.981 51.5606 590.451 50.5909 593.33 50.5909C596.208 50.5909 598.663 51.5606 600.693 53.5C602.754 55.4091 603.784 57.697 603.784 60.3636C603.784 63.0606 602.754 65.3788 600.693 67.3182C598.663 69.2273 596.208 70.1818 593.33 70.1818Z" fill="black"/>
<path d="M656.023 79.1818V93.7273H612.932V79.1818H656.023ZM622.795 149V74.1364C622.795 69.0758 623.78 64.8788 625.75 61.5454C627.75 58.2121 630.477 55.7121 633.932 54.0454C637.386 52.3788 641.311 51.5454 645.705 51.5454C648.674 51.5454 651.386 51.7727 653.841 52.2273C656.326 52.6818 658.174 53.0909 659.386 53.4545L655.932 68C655.174 67.7576 654.235 67.5303 653.114 67.3182C652.023 67.1061 650.902 67 649.75 67C646.902 67 644.917 67.6667 643.795 69C642.674 70.303 642.114 72.1364 642.114 74.5V149H622.795Z" fill="black"/>
<path d="M679.807 175.182C677.352 175.182 675.049 174.985 672.898 174.591C670.776 174.227 669.019 173.758 667.625 173.182L671.989 158.727C674.261 159.424 676.307 159.803 678.125 159.864C679.973 159.924 681.564 159.5 682.898 158.591C684.261 157.682 685.367 156.136 686.216 153.955L687.352 151L662.307 79.1818H682.67L697.125 130.455H697.852L712.443 79.1818H732.943L705.807 156.545C704.504 160.303 702.731 163.576 700.489 166.364C698.277 169.182 695.473 171.348 692.08 172.864C688.686 174.409 684.595 175.182 679.807 175.182Z" fill="black"/>
<path d="M737.278 26.3821V21.8182H758.781V26.3821H750.766V48H745.294V26.3821H737.278Z" fill="black"/>
<path d="M762.322 21.8182H769.149L776.359 39.4091H776.666L783.876 21.8182H790.703V48H785.334V30.9588H785.116L778.341 47.8722H774.685L767.909 30.8949H767.692V48H762.322V21.8182Z" fill="black"/>
</svg>
